<svg xmlns="http://www.w3.org/2000/svg" viewBox="0 0 200 200" width="200" height="200">
  <rect width="200" height="200" fill="#ffffff"/>
  <circle cx="100" cy="100" r="78" fill="#ef8080"/>
  <path d="M100 178a78 78 0 0 0 55-23L92 92 45 150a78 78 0 0 0 55 28z" fill="#c96a6f" opacity="0.45"/>
  <path d="M62 96c0-26 17-45 38-45s38 19 38 45c0 6-1 12-3 17H65c-2-5-3-11-3-17z" fill="#1c1c22"/>
  <path d="M78 118h44v22c0 6-10 10-22 10s-22-4-22-10z" fill="#f0b9a4"/>
  <ellipse cx="100" cy="108" rx="26" ry="31" fill="#f7c9b4"/>
  <path d="M74 96c0-18 12-30 26-30s26 12 26 30v4c-8-8-16-12-26-12s-18 4-26 12z" fill="#1c1c22"/>
  <rect x="76" y="102" width="20" height="14" rx="4" fill="none" stroke="#4a4a52" stroke-width="3"/>
  <rect x="104" y="102" width="20" height="14" rx="4" fill="none" stroke="#4a4a52" stroke-width="3"/>
  <path d="M96 109h8" stroke="#4a4a52" stroke-width="3"/>
  <path d="M92 130c4 3 12 3 16 0" stroke="#c0403f" stroke-width="5" stroke-linecap="round" fill="none"/>
  <path d="M100 150c26 0 46 12 50 28H50c4-16 24-28 50-28z" fill="#2f7f92"/>
</svg>
